<?xml version="1.0" encoding="utf-8"?>
<!-- Generator: Adobe Illustrator 16.0.0, SVG Export Plug-In . SVG Version: 6.00 Build 0)  -->
<!DOCTYPE svg PUBLIC "-//W3C//DTD SVG 1.1//EN" "http://www.w3.org/Graphics/SVG/1.1/DTD/svg11.dtd">
<svg version="1.1" id="Layer_1" xmlns="http://www.w3.org/2000/svg" xmlns:xlink="http://www.w3.org/1999/xlink" x="0px" y="0px"
	 width="512px" height="512px" viewBox="0 0 512 512" enable-background="new 0 0 512 512" xml:space="preserve" fill="#fcc74a">
<g>
	<path fill-rule="evenodd" clip-rule="evenodd" d="M75.117,155.439c0.635-1.89,1.27-3.778,2.098-6.245
		c43.321,40.804,86.315,81.3,129.558,122.029c-42.754,31.867-85.188,63.495-127.968,95.382c-1.346-3.46-2.517-6.471-3.688-9.481
		C75.117,289.896,75.117,222.667,75.117,155.439z"/>
	<path fill-rule="evenodd" clip-rule="evenodd" d="M92.895,133.943c3.758-0.39,7.516-1.111,11.275-1.116
		c54.783-0.073,109.566-0.051,164.349-0.05c46.599,0.001,93.198-0.021,139.797,0.057c3.578,0.006,7.154,0.734,10.731,1.127
		c0.061,0.316,0.12,0.633,0.181,0.949c-1.69,1.627-3.366,3.27-5.073,4.879c-15.258,14.373-30.527,28.732-45.78,43.11
		c-14.203,13.39-28.383,26.805-42.588,40.193c-14.833,13.984-29.543,28.104-44.568,41.879
		c-13.103,12.013-31.644,13.556-45.729,3.498c-6.678-4.769-12.455-10.831-18.479-16.479c-23.57-22.099-47.08-44.26-70.603-66.408
		c-17.154-16.151-34.294-32.318-51.433-48.487c-0.745-0.702-1.41-1.489-2.113-2.236C92.873,134.554,92.884,134.248,92.895,133.943z"
		/>
	<path fill-rule="evenodd" clip-rule="evenodd" d="M91.671,376.707c5.759-4.296,11.52-8.589,17.276-12.888
		c19.489-14.555,38.963-29.129,58.468-43.661c16.419-12.232,32.896-24.385,49.273-36.673c1.499-1.124,2.323-1.016,3.667,0.041
		c11.521,9.059,24.655,13.231,39.266,12.354c11.629-0.698,22.155-4.667,31.351-11.861c1.781-1.394,2.873-1.689,4.848-0.198
		c15.339,11.593,30.781,23.05,46.207,34.529c13.341,9.93,26.713,19.819,40.049,29.758c12.563,9.362,25.098,18.765,37.639,28.158
		c0.21,0.157,0.331,0.435,1.1,1.479c-4.565,0.526-8.583,1.392-12.602,1.396c-83.387,0.08-166.773,0.063-250.16,0.065
		c-18.199,0-36.398,0.079-54.596-0.063c-3.88-0.031-7.754-0.869-11.631-1.336C91.774,377.439,91.723,377.073,91.671,376.707z"/>
	<path fill-rule="evenodd" clip-rule="evenodd" d="M435.427,149.76c0.482,3.186,1.383,6.372,1.387,9.559
		c0.081,64.529,0.056,129.059,0.07,193.589c0.002,4.762-1.476,9.055-3.892,13.553c-42.564-31.727-85-63.357-127.769-95.236
		c43.198-40.69,86.152-81.15,129.107-121.611C434.697,149.661,435.062,149.71,435.427,149.76z"/>
</g>
</svg>
