<?xml version="1.0" encoding="utf-8"?>
<!-- Generator: Adobe Illustrator 16.0.0, SVG Export Plug-In . SVG Version: 6.00 Build 0)  -->
<!DOCTYPE svg PUBLIC "-//W3C//DTD SVG 1.1//EN" "http://www.w3.org/Graphics/SVG/1.1/DTD/svg11.dtd">
<svg version="1.1" id="Layer_1" xmlns="http://www.w3.org/2000/svg" xmlns:xlink="http://www.w3.org/1999/xlink" x="0px" y="0px"
	 width="512px" height="512px" viewBox="0 0 512 512" enable-background="new 0 0 512 512" xml:space="preserve">
<path fill="#fcc74a" clip-rule="evenodd" d="M35.853,165.648c-0.304-23.536,5.043-45.834,15.226-66.788
	c5.629-11.583,12.491-22.771,22.143-31.627c12.717-11.667,25.222-23.702,38.931-34.114c13.99-10.625,28.056-7.903,41.1,3.779
	c14.417,12.911,24.031,29.463,33.854,45.751c5.631,9.34,10.965,19.021,15.019,29.116c9.096,22.647,5.699,42.438-15.223,58.609
	c-9.295,7.184-18.722,14.266-27.418,22.135c-9.096,8.229-13.004,18.621-11.055,31.303c3.131,20.376,13.932,36.966,25.46,53.12
	c14.362,20.125,30.669,38.686,48.499,55.817c11.168,10.731,23.183,20.564,37.106,27.578c9.718,4.896,20.223,7.946,30.977,4.426
	c5.307-1.736,10.317-5.241,14.658-8.899c11.208-9.451,21.455-20.099,33.041-29.026c13.573-10.462,28.99-9.885,44.193-3.396
	c14.808,6.319,27.177,16.354,39.08,26.985c7.696,6.874,15.96,13.194,23.067,20.627c7.944,8.308,15.719,16.892,18.367,28.91
	c2.241,10.17-0.307,19.125-7.262,25.76c-13.282,12.672-26.822,25.321-41.64,36.07c-17.163,12.449-36.904,19.964-58.324,22.023
	c-8.027,0.771-16.105,1.919-24.128,1.697c-20.609-0.568-40.507-4.983-59.791-12.375c-19.765-7.578-38.222-17.545-55.257-30.023
	c-11.257-8.246-22.353-16.779-32.925-25.876c-10.702-9.207-21.241-18.737-30.828-29.075c-14.107-15.214-27.717-30.938-40.76-47.074
	c-10.235-12.662-19.673-26.02-28.788-39.525c-17.072-25.295-30.547-52.483-39.025-81.834c-3.431-11.878-4.914-24.342-6.901-36.602
	C36.316,177.37,36.29,171.477,35.853,165.648z"/>
</svg>
