<?xml version="1.0" encoding="utf-8"?>
<!-- Generator: Adobe Illustrator 16.0.0, SVG Export Plug-In . SVG Version: 6.00 Build 0)  -->
<!DOCTYPE svg PUBLIC "-//W3C//DTD SVG 1.1//EN" "http://www.w3.org/Graphics/SVG/1.1/DTD/svg11.dtd">
<svg version="1.1" id="Layer_1" xmlns="http://www.w3.org/2000/svg" xmlns:xlink="http://www.w3.org/1999/xlink" x="0px" y="0px"
	 width="1000px" height="109.609px" viewBox="0 366.138 1000 109.609" enable-background="new 0 366.138 1000 109.609"
	 xml:space="preserve">
<g>
	<path fill="black" d="M133.387,397.501c0.618,0,1.196-0.167,1.697-0.455c0.601,0.526,1.386,0.851,2.245,0.851
		c1.145,0,2.153-0.563,2.774-1.426c0.66,2.461,3.55,4.316,7.019,4.316c2.954,0,5.488-1.347,6.583-3.267
		c0.922,0.728,2.077,1.16,3.339,1.16c2.613,0,4.794-1.858,5.285-4.329c1.985-0.792,3.392-2.73,3.392-4.999
		c0-2.978-2.415-5.391-5.392-5.391c-0.448,0-0.885,0.063-1.308,0.168c-0.851-0.992-2.059-1.669-3.425-1.833
		c0-0.015,0.004-0.027,0.004-0.042c0-2.977-2.415-5.392-5.388-5.392c-2.261,0-4.189,1.395-4.991,3.368
		c-0.527-0.22-1.105-0.345-1.711-0.345c-2.329,0-4.238,1.781-4.45,4.052c-0.366-0.071-0.745-0.105-1.137-0.105
		c-3.012,0-5.457,2.175-5.457,4.857c0,0.717,0.18,1.393,0.489,2.005c-1.679,0.212-2.984,1.644-2.984,3.387
		C129.969,395.969,131.501,397.501,133.387,397.501z"/>
	<path fill="black" d="M145.372,404.731c0.197,2.706,1.885,3.314,2.189,1.796c0.304-1.522-2.769-5.021-2.769-5.021
		S145.312,403.929,145.372,404.731z"/>
	<path fill="black" d="M153.876,404.913c0.098,2.712,1.761,3.383,2.122,1.875c0.361-1.509-2.578-5.118-2.578-5.118
		S153.847,404.109,153.876,404.913z"/>
	<path fill="black" d="M150.958,410.018c0.003,2.332,1.414,2.957,1.767,1.674c0.354-1.284-2.066-4.474-2.066-4.474
		S150.957,409.325,150.958,410.018z"/>
	<path fill="black" d="M159.356,414.063c0.354-1.283-2.067-4.471-2.067-4.471s0.298,2.106,0.299,2.797
		C157.593,414.722,159.002,415.349,159.356,414.063z"/>
	<polygon fill="black" points="210.485,397.941 215.808,406.745 213.282,392.278 208.848,395.484 203.66,387.84 207.55,400.74 	
		"/>
	<path fill="black" d="M294.873,417.203c0,0,8.719-3.709,6.916-10.926c-1.204-3.509-6.916-1.807-6.916-0.402
		c0-1.403-5.713-3.105-6.916,0.402C286.153,413.494,294.873,417.203,294.873,417.203z"/>
	<polygon fill="black" points="378.228,398.997 379.378,399.788 381.035,397.339 382.797,399.788 383.842,398.997 
		382.159,396.677 384.938,395.706 384.429,394.481 381.699,395.502 381.699,392.62 380.346,392.62 380.346,395.502 377.643,394.481 
		377.184,395.706 379.886,396.677 	"/>
	<path fill="black" d="M633.387,397.502c0.618,0,1.196-0.168,1.696-0.455c0.602,0.525,1.387,0.851,2.245,0.851
		c1.146,0,2.153-0.563,2.775-1.426c0.658,2.46,3.55,4.316,7.018,4.316c2.955,0,5.489-1.348,6.583-3.267
		c0.921,0.727,2.077,1.16,3.34,1.16c2.612,0,4.794-1.858,5.285-4.329c1.984-0.793,3.392-2.73,3.392-4.999
		c0-2.979-2.416-5.391-5.393-5.391c-0.448,0-0.885,0.063-1.308,0.168c-0.854-0.992-2.061-1.67-3.426-1.833
		c0-0.015,0.005-0.028,0.005-0.043c0-2.976-2.416-5.392-5.39-5.392c-2.262,0-4.188,1.396-4.991,3.369
		c-0.526-0.221-1.104-0.345-1.712-0.345c-2.328,0-4.236,1.781-4.447,4.051c-0.367-0.071-0.746-0.105-1.139-0.105
		c-3.012,0-5.457,2.175-5.457,4.858c0,0.717,0.181,1.393,0.488,2.004c-1.678,0.212-2.983,1.645-2.983,3.388
		C629.97,395.97,631.501,397.502,633.387,397.502z"/>
	<path fill="black" d="M645.371,404.731c0.198,2.708,1.887,3.314,2.189,1.797c0.305-1.523-2.769-5.021-2.769-5.021
		S645.313,403.93,645.371,404.731z"/>
	<path fill="black" d="M653.876,404.914c0.099,2.712,1.761,3.383,2.121,1.875c0.361-1.509-2.577-5.118-2.577-5.118
		S653.848,404.11,653.876,404.914z"/>
	<path fill="black" d="M650.957,410.018c0.004,2.333,1.415,2.957,1.768,1.675c0.354-1.285-2.064-4.475-2.064-4.475
		S650.956,409.325,650.957,410.018z"/>
	<path fill="black" d="M659.356,414.063c0.354-1.283-2.066-4.47-2.066-4.47s0.297,2.106,0.299,2.796
		C657.593,414.722,659.002,415.35,659.356,414.063z"/>
	<polygon fill="black" points="710.486,397.941 715.809,406.746 713.282,392.278 708.848,395.485 703.66,387.841 707.551,400.741 
			"/>
	<path fill="black" d="M794.873,417.203c0,0,8.72-3.708,6.917-10.926c-1.204-3.509-6.917-1.806-6.917-0.401
		c0-1.403-5.713-3.106-6.915,0.401C786.153,413.495,794.873,417.203,794.873,417.203z"/>
	<polygon fill="black" points="878.229,398.998 879.378,399.789 881.035,397.34 882.797,399.789 883.842,398.998 882.159,396.678 
		884.939,395.707 884.429,394.482 881.699,395.503 881.699,392.62 880.347,392.62 880.347,395.503 877.643,394.482 877.184,395.707 
		879.886,396.678 	"/>
	<path fill="black" d="M999.127,420.145l-1.375-0.712l-1.32-16.606h-0.303l0.48,16.251l-4.034,0.195l-0.725-15.552l-0.944-0.896
		l0.289,17.575h-1.401l-0.114,10.437l-40.011-18.469v-2.386h-2.324v8.537l-1.133,4.275l-1.138-4.275v-8.537h-2.324v2.309
		l-37.745,17.425l-1.511-38.549l-6.755-1.535l-0.157,1.535l-11.052,0.611l1.356,46.302l-3.917,1.809l-0.661-17.711l-6.313-9.396
		l-0.73-7.906l-0.339,7.906l-4.748,8.937v15.508h-6.754v-2.766h-0.003l-0.531-14.626l-0.194,14.626h-10.938v14.434h-1.535v-12.898
		h-11.057v-8.289h-4.142v6.143l-4.765-6.451v5.988h-1.84v-5.373l-4.452,7.523l0.153,1.689l-2.149,0.613l-0.766-2.305h-7.063v6.447
		h-2.306v-17.037h-2.761v2.451h-1.692v-5.521h-4.145c1.996,28.707,0.77,31.928,0.77,31.928h-1.813l-0.666-8.057h-0.27v6.521h-1.09
		v6.291h-0.782c-0.244-11.271,1.248-28.193,1.248-28.193l0.153-0.949h-12.198v-1.27h-5.517l-1.069-1.805v-3.012c0,0,0-4.092,0-6.342
		c0-1.954-1.586-2.316-2.008-2.38l-0.137-3.32l-0.142,3.324c-1.794,0.153-1.673,2.646-1.673,2.646v5.872h-17.882v-5.872
		c0,0,0.128-2.561-1.747-2.653l-0.135-3.315l-0.141,3.337c-0.515,0.09-1.937,0.516-1.937,2.363c0,2.25,0,6.341,0,6.341v3.014
		l-1.07,1.803h-5.515v1.271h-12.199l0.152,0.947c0,0,1.495,16.922,1.251,28.195h-2.521l-3.378-7.979v-35.158l-2.76-5.065
		l-2.308,4.298v36.849l-4.604,7.215v-35.928l-1.384,0.154l-0.457,8.443h-3.38v-7.063l-4.757-5.832h-3.07v-7.985h-2.767l-16.12,1.537
		v16.424h-4.145v17.967h-4.604v-30.86l-15.813-1.688l-7.979,1.534v13.204h-2.918v6.293l-2.457,0.615v-1.383h-1.845v-2.611h-2.608
		v-1.225h-3.375v-3.225h-5.224v-0.617h-6.753v1.383h-3.685v-13.203h-1.69v-1.844l-2.304-0.766l-0.459,1.227h-2.608v-1.075
		l-4.146,0.77v2.302h-2.151v23.949h-1.688l-1.996-1.84v-9.98h-13.354v13.664h-3.991v5.99h-4.759v-13.975l-1.535-1.688v-16.734
		h-2.305V394.39h-1.383v-1.379h-1.688v-15.816l-3.837-7.676v-3.374h-0.771v3.374l-3.223,8.444l-1.074,15.661h-1.69v21.491h-2.456
		v15.966h-1.075v10.441l-5.679-0.393v-8.055l-1.535-1.688v-16.734h-2.301v-20.266h-1.385v-1.379h-1.687v-15.816l-3.84-7.676v-3.374
		h-0.771v3.374l-3.223,8.444l-1.073,15.661h-1.688v21.491h-2.457v15.966h-1.073v6.449h-4.914v9.52h-3.836v-11.207l-4.453,0.152
		v-5.68h-12.282v5.68l-7.984-0.766l-0.611,3.07H500v-1.674v-1.023v-5.955l-0.873-9.503l-1.376-0.712l-1.32-16.606h-0.302
		l0.481,16.25l-4.034,0.195l-0.725-15.552l-0.945-0.895l0.29,17.574h-1.402l-0.114,10.438l-40.012-18.47v-2.386h-2.324v8.537
		l-1.133,4.274l-1.137-4.274v-8.537h-2.324v2.309l-37.746,17.424l-1.512-38.548l-6.754-1.536l-0.156,1.536l-11.052,0.611
		l1.355,46.301l-3.917,1.811l-0.661-17.713l-6.313-9.396l-0.73-7.906l-0.339,7.906l-4.748,8.937v15.508h-6.753v-2.766h-0.003
		l-0.531-14.625l-0.195,14.625h-10.938v14.434h-1.534v-12.898h-11.057v-8.289h-4.143v6.143l-4.764-6.451v5.99h-1.839v-5.373
		l-4.453,7.521l0.152,1.689l-2.149,0.613l-0.766-2.303h-7.063v6.445h-2.305v-17.037h-2.761v2.451h-1.692v-5.521h-4.145
		c1.997,28.707,0.769,31.928,0.769,31.928h-1.813l-0.666-8.057h-0.27v6.521h-1.09v6.291h-0.782
		c-0.245-11.273,1.249-28.193,1.249-28.193l0.153-0.947h-12.199v-1.271h-5.516l-1.069-1.805v-3.012c0,0,0-4.092,0-6.342
		c0-1.954-1.587-2.316-2.008-2.379l-0.136-3.321l-0.141,3.325c-1.793,0.152-1.672,2.645-1.672,2.645v5.872h-17.882v-5.872
		c0,0,0.127-2.561-1.747-2.651l-0.135-3.317l-0.141,3.336c-0.513,0.091-1.934,0.517-1.934,2.364c0,2.25,0,6.343,0,6.343v3.012
		l-1.071,1.803h-5.515v1.271h-12.199l0.153,0.949c0,0,1.496,16.92,1.25,28.193h-2.521l-3.379-7.979v-35.157l-2.76-5.066
		l-2.307,4.299v36.848l-4.604,7.215v-35.926l-1.383,0.152l-0.457,8.443h-3.38v-7.063l-4.756-5.833h-3.07v-7.984h-2.767
		l-16.121,1.536v16.425h-4.144v17.967h-4.605v-30.861l-15.813-1.688l-7.981,1.534v13.204h-2.917v6.293l-2.458,0.615v-1.385h-1.844
		v-2.609h-2.609v-1.227h-3.375v-3.223h-5.224v-0.617h-6.753v1.383h-3.684v-13.203h-1.691v-1.845l-2.302-0.766l-0.46,1.227h-2.607
		v-1.074l-4.145,0.77v2.302h-2.153v23.949h-1.688l-1.997-1.84v-9.98H99.52v13.664h-3.991v5.988h-4.758v-13.973l-1.535-1.689v-16.732
		h-2.305v-20.266h-1.382v-1.379H83.86v-15.816l-3.836-7.676v-3.375h-0.77v3.375l-3.222,8.444l-1.075,15.66h-1.691v21.491H70.81
		v15.965h-1.075v10.443l-5.68-0.393v-8.055l-1.535-1.689V414.65h-2.3v-20.266h-1.383v-1.379h-1.688v-15.816l-3.84-7.676v-3.375
		h-0.77v3.375l-3.222,8.444l-1.075,15.66h-1.687v21.491h-2.458v15.965h-1.073v6.449H38.11v9.521h-3.836v-11.207l-4.454,0.15v-5.678
		H17.54v5.678l-7.985-0.764L8.943,438.3H0v37.24h43.024v0.205l0.336-0.205H500l0,0h43.024v0.207l0.336-0.207H1000v-27.512v-1.057
		v-3.248v-1.066v-6.031v-1.023v-5.955L999.127,420.145z M896.301,428.468l-4.459-5.848l4.408-5.439l4.518,5.439L896.301,428.468z
		 M895.396,396.289l4.51,5.437l-4.461,5.847l-4.463-5.847L895.396,396.289z M396.301,428.466l-4.459-5.846l4.408-5.44l4.517,5.44
		L396.301,428.466z M395.396,396.288l4.511,5.437l-4.461,5.847l-4.463-5.847L395.396,396.288z M253.028,458.558h-5.942v-3.162h0.848
		c0,0-1.378-4.666,2.125-4.666c3.5,0,2.122,4.666,2.122,4.666h0.847V458.558z M277.039,458.558H261.18l-0.192-9.699h0.614
		c0,0,0.208-8.193,7.508-11.537c7.306,3.344,7.508,11.537,7.508,11.537h0.612L277.039,458.558z M291.313,458.558h-5.937v-3.162
		h0.847c0,0-1.378-4.666,2.121-4.666c3.5,0,2.121,4.666,2.121,4.666h0.848V458.558L291.313,458.558z M449.668,413.396l40,18.464
		l-0.052,4.941l-39.948-22.519V413.396z M485.731,443.599h-4.345v-3.215L485.731,443.599z M476.613,436.873h-1.997l-0.933-2.184
		l2.93,2.168V436.873L476.613,436.873z M449.668,415.353l39.938,22.514l-0.063,5.732h-2.246l-5.306-3.924h0.29v-2.15l-0.896-0.238
		v-0.414h-0.836l-0.968-2.266v2.266h-1.38l-0.904-0.668l-0.685-1.598v1.092l-26.945-19.932V415.353L449.668,415.353z
		 M449.668,416.924l23.981,17.738v2.211h-0.415l-1.177,0.924l0.003,0.115l-0.039,0.023v1.74h0.08l0.068,3.102l-22.504-25.761v-0.092
		H449.668z M449.668,418.432l22.539,25.802l0.063,2.738h-3.691l-0.472-7.07l-3.279,0.334l-0.168-1.174l-4.823-0.762l-0.151,1.842
		l-1.716-0.109v-3.328l-1.316-1.09l-0.007-0.008l-1.724-1.609l-0.761,1.439l-4.493-16.917V418.432L449.668,418.432z M405.265,436.39
		l37.485-21.135v0.383l-26.497,19.604l-7.081,0.602l-0.361,4.902l-3.279,2.428L405.265,436.39z M435.988,443.998l-0.103-1.248
		l-3.991-0.459l-0.461-2.305h-7.679l18.996-21.75v0.282L435.988,443.998z M422.516,439.986h-5.512l-0.491-3.783l26.238-19.408v0.026
		L422.516,439.986z M408.723,441.97l-0.011,0.164H408.5L408.723,441.97z M405.574,444.298l2.09-1.549l0.172,4.223h-2.156
		L405.574,444.298z M448.509,423.203l4.621,17.412l-0.048,0.443l-2.049-0.1l-3.618-13.633L448.509,423.203z M446.211,431.857
		l3.662,13.789l-0.017,0.479h-4.449l-0.157-1.688l-2.402,0.092L446.211,431.857z M443.914,423.203l1.094,4.123l-5.011,18.881
		l-2.222,0.129L443.914,423.203z M442.75,413.313v0.875l-37.527,21.152l-0.18-4.621L442.75,413.313z M386.918,439.087l0.188,6.469
		l-2.517,1.416h-1.352l-0.008-0.078l-0.224-6.004L386.918,439.087z M387.148,446.972h-0.663l0.651-0.365L387.148,446.972z
		 M384.609,465.164l-1.292-17.135h3.862l0.5,17.135H384.609z M396.301,451.234l-2.444-3.205l-0.806-1.057l-1.209-1.584l2.145-2.643
		l1.597-1.975l0.667-0.818l0.256,0.305l0.604,0.729l3.656,4.4l-1.211,1.584l-0.805,1.059L396.301,451.234z M405.797,449.966
		l-0.074-1.938h2.157l0.066,1.629L405.797,449.966z M468.95,452.509l-0.301-4.479h3.644l0.102,4.479H468.95z M753.027,458.558
		h-5.941v-3.16h0.848c0,0-1.377-4.668,2.126-4.668c3.499,0,2.121,4.668,2.121,4.668h0.848L753.027,458.558L753.027,458.558z
		 M777.038,458.558H761.18l-0.19-9.699h0.612c0,0,0.208-8.191,7.509-11.537c7.306,3.346,7.508,11.537,7.508,11.537h0.612
		L777.038,458.558z M791.313,458.558h-5.938v-3.16h0.847c0,0-1.379-4.668,2.122-4.668c3.499,0,2.12,4.668,2.12,4.668h0.849V458.558z
		 M949.669,416.924l23.98,17.738v2.211h-0.415l-1.176,0.926l0.004,0.113l-0.039,0.023v1.74h0.078l0.069,3.102l-22.503-25.761
		L949.669,416.924L949.669,416.924z M985.73,443.599h-4.345v-3.215L985.73,443.599z M976.613,436.873h-1.996l-0.933-2.182
		l2.929,2.166V436.873z M949.669,418.432l22.538,25.802l0.063,2.74h-3.689l-0.473-7.072l-3.278,0.334l-0.169-1.172l-4.822-0.764
		l-0.151,1.842l-1.716-0.107v-3.33l-1.316-1.09l-0.009-0.008L954.923,434l-0.762,1.439l-4.491-16.917L949.669,418.432
		L949.669,418.432z M905.266,436.39l37.484-21.134v0.383l-26.496,19.603l-7.08,0.602l-0.361,4.902l-3.279,2.43L905.266,436.39z
		 M935.988,444l-0.103-1.248l-3.991-0.461l-0.462-2.305h-7.679l18.995-21.749v0.282L935.988,444z M922.516,439.986h-5.511
		l-0.492-3.781l26.237-19.41v0.027L922.516,439.986z M908.724,441.97l-0.011,0.166H908.5L908.724,441.97z M905.574,444.298
		l2.091-1.547l0.172,4.223h-2.155L905.574,444.298z M948.509,423.205l4.62,17.41l-0.046,0.443l-2.051-0.1l-3.617-13.633
		L948.509,423.205z M946.212,431.857l3.661,13.791l-0.018,0.479h-4.447l-0.158-1.688l-2.401,0.09L946.212,431.857z M943.914,423.205
		l1.094,4.123l-5.011,18.879l-2.222,0.131L943.914,423.205z M942.75,413.314v0.875l-37.526,21.152l-0.181-4.621L942.75,413.314z
		 M886.918,439.089l0.189,6.467l-2.517,1.418h-1.353l-0.008-0.078l-0.225-6.004L886.918,439.089z M887.146,446.974h-0.661
		l0.651-0.367L887.146,446.974z M884.609,465.166l-1.293-17.137h3.863l0.499,17.137H884.609z M896.301,451.234l-2.444-3.205
		l-0.805-1.057l-1.21-1.584l2.145-2.643l1.597-1.973l0.668-0.82l0.256,0.307l0.604,0.729l3.656,4.4l-1.211,1.584l-0.805,1.057
		L896.301,451.234z M905.798,449.968l-0.074-1.938h2.157l0.066,1.629L905.798,449.968z M972.395,452.511h-3.443l-0.301-4.48h3.644
		L972.395,452.511z M989.544,443.599h-2.247l-5.305-3.924h0.29v-2.148l-0.896-0.24v-0.414h-0.836l-0.968-2.266v2.266h-1.38
		l-0.904-0.668l-0.686-1.598v1.092l-26.944-19.931v-0.414l39.938,22.513L989.544,443.599z M989.616,436.802l-39.947-22.518v-0.888
		l40,18.464L989.616,436.802z"/>
</g>
</svg>
